<svg xmlns="http://www.w3.org/2000/svg" width="1200" height="720" viewBox="0 0 1200 720" role="img" aria-labelledby="title desc">
  <title id="title">Black spots on plant leaves illustration</title>
  <desc id="desc">A close-up editorial plant care illustration showing dark leaf spots on a green houseplant leaf.</desc>
  <defs>
    <radialGradient id="bgGlow" cx="54%" cy="42%" r="70%">
      <stop offset="0%" stop-color="#fbf7ea"/>
      <stop offset="62%" stop-color="#f4efe1"/>
      <stop offset="100%" stop-color="#e8dfcd"/>
    </radialGradient>
    <linearGradient id="leafMain" x1="22%" y1="10%" x2="80%" y2="88%">
      <stop offset="0%" stop-color="#7fa66c"/>
      <stop offset="45%" stop-color="#4f7d55"/>
      <stop offset="100%" stop-color="#244735"/>
    </linearGradient>
    <linearGradient id="leafShadow" x1="20%" y1="16%" x2="86%" y2="92%">
      <stop offset="0%" stop-color="#1b3328" stop-opacity="0"/>
      <stop offset="100%" stop-color="#10241b" stop-opacity="0.42"/>
    </linearGradient>
    <filter id="softShadow" x="-20%" y="-20%" width="140%" height="140%">
      <feDropShadow dx="0" dy="26" stdDeviation="24" flood-color="#173126" flood-opacity="0.18"/>
    </filter>
    <filter id="spotBlur" x="-40%" y="-40%" width="180%" height="180%">
      <feGaussianBlur stdDeviation="0.6"/>
    </filter>
    <clipPath id="leafClip">
      <path d="M235 608C204 472 221 335 304 222C403 87 570 58 727 118C862 170 967 283 1005 428C897 577 750 660 583 652C455 647 339 633 235 608Z"/>
    </clipPath>
  </defs>

  <rect width="1200" height="720" fill="url(#bgGlow)"/>
  <path d="M-20 570C170 505 318 581 470 521C642 453 815 473 1220 348" fill="none" stroke="#173126" stroke-width="2" opacity="0.08"/>
  <circle cx="1032" cy="118" r="196" fill="#173126" opacity="0.055"/>
  <circle cx="116" cy="646" r="260" fill="#7f8f69" opacity="0.11"/>

  <g filter="url(#softShadow)">
    <path d="M235 608C204 472 221 335 304 222C403 87 570 58 727 118C862 170 967 283 1005 428C897 577 750 660 583 652C455 647 339 633 235 608Z" fill="url(#leafMain)"/>
    <path d="M235 608C204 472 221 335 304 222C403 87 570 58 727 118C862 170 967 283 1005 428C897 577 750 660 583 652C455 647 339 633 235 608Z" fill="url(#leafShadow)"/>
    <path d="M235 608C204 472 221 335 304 222C403 87 570 58 727 118C862 170 967 283 1005 428C897 577 750 660 583 652C455 647 339 633 235 608Z" fill="none" stroke="#173126" stroke-width="12" stroke-linejoin="round"/>

    <g clip-path="url(#leafClip)">
      <path d="M310 624C405 482 507 345 690 128" fill="none" stroke="#e8efe2" stroke-width="13" stroke-linecap="round" opacity="0.75"/>
      <path d="M410 497C326 461 277 423 239 366" fill="none" stroke="#e8efe2" stroke-width="4" stroke-linecap="round" opacity="0.24"/>
      <path d="M493 400C407 354 350 303 316 246" fill="none" stroke="#e8efe2" stroke-width="4" stroke-linecap="round" opacity="0.22"/>
      <path d="M578 301C502 253 445 202 409 137" fill="none" stroke="#e8efe2" stroke-width="4" stroke-linecap="round" opacity="0.22"/>
      <path d="M633 314C728 279 807 240 891 183" fill="none" stroke="#e8efe2" stroke-width="4" stroke-linecap="round" opacity="0.2"/>
      <path d="M566 405C688 389 802 359 952 295" fill="none" stroke="#e8efe2" stroke-width="4" stroke-linecap="round" opacity="0.22"/>
      <path d="M496 505C632 509 765 489 941 430" fill="none" stroke="#e8efe2" stroke-width="4" stroke-linecap="round" opacity="0.2"/>

      <g fill="#17221a" filter="url(#spotBlur)">
        <ellipse cx="428" cy="386" rx="34" ry="29" transform="rotate(-18 428 386)"/>
        <ellipse cx="562" cy="294" rx="45" ry="37" transform="rotate(10 562 294)"/>
        <ellipse cx="684" cy="436" rx="55" ry="43" transform="rotate(-12 684 436)"/>
        <ellipse cx="784" cy="262" rx="30" ry="25" transform="rotate(20 784 262)"/>
        <ellipse cx="372" cy="523" rx="24" ry="21" transform="rotate(16 372 523)"/>
        <ellipse cx="817" cy="515" rx="36" ry="29" transform="rotate(-10 817 515)"/>
      </g>
      <g fill="#b98b61" opacity="0.58">
        <ellipse cx="421" cy="374" rx="20" ry="15" transform="rotate(-18 421 374)"/>
        <ellipse cx="553" cy="282" rx="26" ry="20" transform="rotate(10 553 282)"/>
        <ellipse cx="676" cy="422" rx="31" ry="22" transform="rotate(-12 676 422)"/>
        <ellipse cx="812" cy="507" rx="19" ry="14" transform="rotate(-10 812 507)"/>
      </g>
      <g fill="#f3ead5" opacity="0.3">
        <circle cx="485" cy="205" r="8"/>
        <circle cx="735" cy="352" r="7"/>
        <circle cx="894" cy="404" r="9"/>
        <circle cx="512" cy="552" r="6"/>
      </g>
    </g>
  </g>
</svg>
