<svg xmlns="http://www.w3.org/2000/svg" width="1200" height="720" viewBox="0 0 1200 720" role="img" aria-labelledby="title desc">
  <title id="title">Water Rhythm plant care illustration</title>
  <desc id="desc">A SoilAI journal cover illustration for water rhythm.</desc>
  <rect width="1200" height="720" fill="#f8f4e8"/>
  <circle cx="1020" cy="100" r="210" fill="#5d98a8" opacity="0.14"/>
  <circle cx="160" cy="620" r="250" fill="#173126" opacity="0.06"/>
  <path d="M80 584 C280 510 408 612 590 548 C760 488 870 520 1120 430" fill="none" stroke="#173126" stroke-width="2" opacity="0.12"/>
  <g>
  <path d="M430 498 H770 L724 640 H476 Z" fill="#b88b62" stroke="#173126" stroke-width="10" stroke-linejoin="round"/>
  <path d="M410 480 H790" stroke="#173126" stroke-width="18" stroke-linecap="round"/>
  <path d="M492 568 H708" stroke="#173126" stroke-width="8" opacity="0.16" stroke-linecap="round"/><circle cx="600" cy="290" r="126" fill="#f8f4e8" stroke="#173126" stroke-width="12"/><path d="M600 290 L600 206 M600 290 L678 326" stroke="#173126" stroke-width="12" stroke-linecap="round"/><path d="M432 311.3 C446.3 328.9 441.9 350.9 432 350.9 C422.1 350.9 417.7 328.9 432 311.3Z" fill="#5d98a8" opacity="0.85"/><path d="M780 269.3 C794.3 286.9 789.9 308.9 780 308.9 C770.1 308.9 765.7 286.9 780 269.3Z" fill="#5d98a8" opacity="0.85"/></g>
</svg>
