<svg xmlns="http://www.w3.org/2000/svg" width="1200" height="720" viewBox="0 0 1200 720" role="img" aria-labelledby="title desc">
  <title id="title">Root Rot plant care illustration</title>
  <desc id="desc">A SoilAI journal cover illustration for root rot.</desc>
  <rect width="1200" height="720" fill="#f8f4e8"/>
  <circle cx="1020" cy="100" r="210" fill="#7c4d3a" opacity="0.14"/>
  <circle cx="160" cy="620" r="250" fill="#173126" opacity="0.06"/>
  <path d="M80 584 C280 510 408 612 590 548 C760 488 870 520 1120 430" fill="none" stroke="#173126" stroke-width="2" opacity="0.12"/>
  <g>
  <path d="M430 490 H770 L724 632 H476 Z" fill="#8d644c" stroke="#173126" stroke-width="10" stroke-linejoin="round"/>
  <path d="M410 472 H790" stroke="#173126" stroke-width="18" stroke-linecap="round"/>
  <path d="M492 560 H708" stroke="#173126" stroke-width="8" opacity="0.16" stroke-linecap="round"/><path d="M600 490 C588 560 530 600 480 640 M600 492 C606 566 656 600 720 630 M600 500 C600 565 600 610 600 660" stroke="#5c3328" stroke-width="13" fill="none" stroke-linecap="round"/><path d="M492 640 C518 652 548 654 576 641 M690 626 C665 650 628 658 598 650" stroke="#173126" stroke-width="8" fill="none" opacity="0.4"/></g>
</svg>
