<svg xmlns="http://www.w3.org/2000/svg" width="1200" height="720" viewBox="0 0 1200 720" role="img" aria-labelledby="title desc">
  <title id="title">Fungus Gnats plant care illustration</title>
  <desc id="desc">A SoilAI journal cover illustration for fungus gnats.</desc>
  <rect width="1200" height="720" fill="#f8f4e8"/>
  <circle cx="1020" cy="100" r="210" fill="#d7ba4b" opacity="0.14"/>
  <circle cx="160" cy="620" r="250" fill="#173126" opacity="0.06"/>
  <path d="M80 584 C280 510 408 612 590 548 C760 488 870 520 1120 430" fill="none" stroke="#173126" stroke-width="2" opacity="0.12"/>
  <g>
  <path d="M430 490 H770 L724 632 H476 Z" fill="#b88b62" stroke="#173126" stroke-width="10" stroke-linejoin="round"/>
  <path d="M410 472 H790" stroke="#173126" stroke-width="18" stroke-linecap="round"/>
  <path d="M492 560 H708" stroke="#173126" stroke-width="8" opacity="0.16" stroke-linecap="round"/><rect x="682" y="252" width="122" height="166" rx="12" fill="#d7ba4b" stroke="#173126" stroke-width="10"/>
  <g transform="translate(440 245) scale(0.72)">
    <ellipse cx="0" cy="0" rx="18" ry="26" fill="#173126"/>
    <circle cx="0" cy="-30" r="13" fill="#173126"/>
    <path d="M-13 -38 L-30 -58 M13 -38 L30 -58 M-16 -12 L-48 -28 M16 -12 L48 -28 M-17 8 L-48 20 M17 8 L48 20" stroke="#173126" stroke-width="7" stroke-linecap="round"/>
  </g>
  <g transform="translate(505 190) scale(0.42)">
    <ellipse cx="0" cy="0" rx="18" ry="26" fill="#173126"/>
    <circle cx="0" cy="-30" r="13" fill="#173126"/>
    <path d="M-13 -38 L-30 -58 M13 -38 L30 -58 M-16 -12 L-48 -28 M16 -12 L48 -28 M-17 8 L-48 20 M17 8 L48 20" stroke="#173126" stroke-width="7" stroke-linecap="round"/>
  </g>
  <g transform="translate(785 198) scale(0.48)">
    <ellipse cx="0" cy="0" rx="18" ry="26" fill="#173126"/>
    <circle cx="0" cy="-30" r="13" fill="#173126"/>
    <path d="M-13 -38 L-30 -58 M13 -38 L30 -58 M-16 -12 L-48 -28 M16 -12 L48 -28 M-17 8 L-48 20 M17 8 L48 20" stroke="#173126" stroke-width="7" stroke-linecap="round"/>
  </g><path d="M743 418 V512" stroke="#173126" stroke-width="8"/></g>
</svg>
