<svg xmlns="http://www.w3.org/2000/svg" width="1200" height="720" viewBox="0 0 1200 720" role="img" aria-labelledby="title desc">
  <title id="title">Spider Mites plant care illustration</title>
  <desc id="desc">A SoilAI journal cover illustration for spider mites.</desc>
  <rect width="1200" height="720" fill="#f8f4e8"/>
  <circle cx="1020" cy="100" r="210" fill="#b25f4b" opacity="0.14"/>
  <circle cx="160" cy="620" r="250" fill="#173126" opacity="0.06"/>
  <path d="M80 584 C280 510 408 612 590 548 C760 488 870 520 1120 430" fill="none" stroke="#173126" stroke-width="2" opacity="0.12"/>
  <g>
  <g transform="translate(596 332) rotate(-12) scale(1.55)">
    <path d="M0,-86 C62,-66 92,-12 70,36 C46,88 -24,96 -72,46 C-116,0 -80,-62 0,-86Z" fill="#557c55" stroke="#173126" stroke-width="10" stroke-linejoin="round"/>
    <path d="M-48,44 C-12,10 24,-26 58,-58" fill="none" stroke="#f8f4e8" stroke-width="7" stroke-linecap="round" opacity="0.78"/>
  </g><path d="M492 220 C590 276 700 226 760 330 M470 318 C590 342 684 390 760 492 M520 454 C594 350 696 296 760 230" stroke="#f8f4e8" stroke-width="7" fill="none" opacity="0.85"/>
  <g transform="translate(706 315) scale(0.42)">
    <ellipse cx="0" cy="0" rx="18" ry="26" fill="#b25f4b"/>
    <circle cx="0" cy="-30" r="13" fill="#b25f4b"/>
    <path d="M-13 -38 L-30 -58 M13 -38 L30 -58 M-16 -12 L-48 -28 M16 -12 L48 -28 M-17 8 L-48 20 M17 8 L48 20" stroke="#b25f4b" stroke-width="7" stroke-linecap="round"/>
  </g>
  <g transform="translate(548 388) scale(0.32)">
    <ellipse cx="0" cy="0" rx="18" ry="26" fill="#b25f4b"/>
    <circle cx="0" cy="-30" r="13" fill="#b25f4b"/>
    <path d="M-13 -38 L-30 -58 M13 -38 L30 -58 M-16 -12 L-48 -28 M16 -12 L48 -28 M-17 8 L-48 20 M17 8 L48 20" stroke="#b25f4b" stroke-width="7" stroke-linecap="round"/>
  </g>
  <path d="M430 490 H770 L724 632 H476 Z" fill="#b88b62" stroke="#173126" stroke-width="10" stroke-linejoin="round"/>
  <path d="M410 472 H790" stroke="#173126" stroke-width="18" stroke-linecap="round"/>
  <path d="M492 560 H708" stroke="#173126" stroke-width="8" opacity="0.16" stroke-linecap="round"/></g>
</svg>
