<svg xmlns="http://www.w3.org/2000/svg" width="1200" height="720" viewBox="0 0 1200 720" role="img" aria-labelledby="title desc">
  <title id="title">Overwatered plant care illustration</title>
  <desc id="desc">A SoilAI journal cover illustration for overwatered.</desc>
  <rect width="1200" height="720" fill="#f8f4e8"/>
  <circle cx="1020" cy="100" r="210" fill="#4d8fa8" opacity="0.14"/>
  <circle cx="160" cy="620" r="250" fill="#173126" opacity="0.06"/>
  <path d="M80 584 C280 510 408 612 590 548 C760 488 870 520 1120 430" fill="none" stroke="#173126" stroke-width="2" opacity="0.12"/>
  <g><path d="M466 216 C492 248 484 288 466 288 C448 288 440 248 466 216Z" fill="#5d98a8" opacity="0.85"/><path d="M612 168.8 C632.8 194.4 626.4 226.4 612 226.4 C597.6 226.4 591.2 194.4 612 168.8Z" fill="#5d98a8" opacity="0.85"/><path d="M738 235.4 C761.4 264.2 754.2 300.2 738 300.2 C721.8 300.2 714.6 264.2 738 235.4Z" fill="#5d98a8" opacity="0.85"/>
  <path d="M430 490 H770 L724 632 H476 Z" fill="#a57458" stroke="#173126" stroke-width="10" stroke-linejoin="round"/>
  <path d="M410 472 H790" stroke="#173126" stroke-width="18" stroke-linecap="round"/>
  <path d="M492 560 H708" stroke="#173126" stroke-width="8" opacity="0.16" stroke-linecap="round"/><path d="M416 584 C500 620 702 620 786 584" stroke="#5d98a8" stroke-width="18" fill="none" stroke-linecap="round" opacity="0.8"/>
  <g transform="translate(600 330) rotate(-8) scale(1.15)">
    <path d="M0,-86 C62,-66 92,-12 70,36 C46,88 -24,96 -72,46 C-116,0 -80,-62 0,-86Z" fill="#637f58" stroke="#173126" stroke-width="10" stroke-linejoin="round"/>
    <path d="M-48,44 C-12,10 24,-26 58,-58" fill="none" stroke="#f8f4e8" stroke-width="7" stroke-linecap="round" opacity="0.78"/>
  </g></g>
</svg>
