<svg xmlns="http://www.w3.org/2000/svg" width="1200" height="720" viewBox="0 0 1200 720" role="img" aria-labelledby="title desc">
  <title id="title">Underwatered plant care illustration</title>
  <desc id="desc">A SoilAI journal cover illustration for underwatered.</desc>
  <rect width="1200" height="720" fill="#f8f4e8"/>
  <circle cx="1020" cy="100" r="210" fill="#b8874c" opacity="0.14"/>
  <circle cx="160" cy="620" r="250" fill="#173126" opacity="0.06"/>
  <path d="M80 584 C280 510 408 612 590 548 C760 488 870 520 1120 430" fill="none" stroke="#173126" stroke-width="2" opacity="0.12"/>
  <g>
  <path d="M430 492 H770 L724 634 H476 Z" fill="#a8754d" stroke="#173126" stroke-width="10" stroke-linejoin="round"/>
  <path d="M410 474 H790" stroke="#173126" stroke-width="18" stroke-linecap="round"/>
  <path d="M492 562 H708" stroke="#173126" stroke-width="8" opacity="0.16" stroke-linecap="round"/><path d="M360 604 H840" stroke="#b8874c" stroke-width="10" stroke-dasharray="18 24" opacity="0.7"/>
  <g transform="translate(515 346) rotate(145) scale(0.92)">
    <path d="M0,-86 C62,-66 92,-12 70,36 C46,88 -24,96 -72,46 C-116,0 -80,-62 0,-86Z" fill="#b8874c" stroke="#173126" stroke-width="10" stroke-linejoin="round"/>
    <path d="M-48,44 C-12,10 24,-26 58,-58" fill="none" stroke="#f8f4e8" stroke-width="7" stroke-linecap="round" opacity="0.78"/>
  </g>
  <g transform="translate(695 338) rotate(30) scale(0.92)">
    <path d="M0,-86 C62,-66 92,-12 70,36 C46,88 -24,96 -72,46 C-116,0 -80,-62 0,-86Z" fill="#8b9a67" stroke="#173126" stroke-width="10" stroke-linejoin="round"/>
    <path d="M-48,44 C-12,10 24,-26 58,-58" fill="none" stroke="#f8f4e8" stroke-width="7" stroke-linecap="round" opacity="0.78"/>
  </g></g>
</svg>
