<svg xmlns="http://www.w3.org/2000/svg" width="1200" height="720" viewBox="0 0 1200 720" role="img" aria-labelledby="title desc">
  <title id="title">White Spots plant care illustration</title>
  <desc id="desc">A SoilAI journal cover illustration for white spots.</desc>
  <rect width="1200" height="720" fill="#f8f4e8"/>
  <circle cx="1020" cy="100" r="210" fill="#9fb6a8" opacity="0.14"/>
  <circle cx="160" cy="620" r="250" fill="#173126" opacity="0.06"/>
  <path d="M80 584 C280 510 408 612 590 548 C760 488 870 520 1120 430" fill="none" stroke="#173126" stroke-width="2" opacity="0.12"/>
  <g>
  <g transform="translate(596 332) rotate(-12) scale(1.55)">
    <path d="M0,-86 C62,-66 92,-12 70,36 C46,88 -24,96 -72,46 C-116,0 -80,-62 0,-86Z" fill="#477c55" stroke="#173126" stroke-width="10" stroke-linejoin="round"/>
    <path d="M-48,44 C-12,10 24,-26 58,-58" fill="none" stroke="#f8f4e8" stroke-width="7" stroke-linecap="round" opacity="0.78"/>
  </g><circle cx="588" cy="314" r="16" fill="#f8f4e8" stroke="#173126" stroke-width="5"/><circle cx="632" cy="350" r="20" fill="#f8f4e8" stroke="#173126" stroke-width="5"/><circle cx="544" cy="366" r="14" fill="#f8f4e8" stroke="#173126" stroke-width="5"/><circle cx="616" cy="276" r="13" fill="#f8f4e8" stroke="#173126" stroke-width="5"/><circle cx="586" cy="392" r="18" fill="#f8f4e8" stroke="#173126" stroke-width="5"/>
  <path d="M430 490 H770 L724 632 H476 Z" fill="#b88b62" stroke="#173126" stroke-width="10" stroke-linejoin="round"/>
  <path d="M410 472 H790" stroke="#173126" stroke-width="18" stroke-linecap="round"/>
  <path d="M492 560 H708" stroke="#173126" stroke-width="8" opacity="0.16" stroke-linecap="round"/></g>
</svg>
