<svg xmlns="http://www.w3.org/2000/svg" width="1200" height="720" viewBox="0 0 1200 720" role="img" aria-labelledby="title desc">
  <title id="title">Curling Leaves plant care illustration</title>
  <desc id="desc">A SoilAI journal cover illustration for curling leaves.</desc>
  <rect width="1200" height="720" fill="#f8f4e8"/>
  <circle cx="1020" cy="100" r="210" fill="#758f62" opacity="0.14"/>
  <circle cx="160" cy="620" r="250" fill="#173126" opacity="0.06"/>
  <path d="M80 584 C280 510 408 612 590 548 C760 488 870 520 1120 430" fill="none" stroke="#173126" stroke-width="2" opacity="0.12"/>
  <g>
  <path d="M430 498 H770 L724 640 H476 Z" fill="#b88b62" stroke="#173126" stroke-width="10" stroke-linejoin="round"/>
  <path d="M410 480 H790" stroke="#173126" stroke-width="18" stroke-linecap="round"/>
  <path d="M492 568 H708" stroke="#173126" stroke-width="8" opacity="0.16" stroke-linecap="round"/><path d="M470 330 C500 210 640 220 620 332 C604 428 488 432 510 348" fill="none" stroke="#173126" stroke-width="22" stroke-linecap="round"/><path d="M684 342 C764 240 856 342 770 420 C712 472 646 410 690 354" fill="none" stroke="#758f62" stroke-width="42" stroke-linecap="round"/></g>
</svg>
