<svg xmlns="http://www.w3.org/2000/svg" width="1200" height="720" viewBox="0 0 1200 720" role="img" aria-labelledby="title desc">
  <title id="title">Calathea Curling plant care illustration</title>
  <desc id="desc">A SoilAI journal cover illustration for calathea curling.</desc>
  <rect width="1200" height="720" fill="#f8f4e8"/>
  <circle cx="1020" cy="100" r="210" fill="#8b6a97" opacity="0.14"/>
  <circle cx="160" cy="620" r="250" fill="#173126" opacity="0.06"/>
  <path d="M80 584 C280 510 408 612 590 548 C760 488 870 520 1120 430" fill="none" stroke="#173126" stroke-width="2" opacity="0.12"/>
  <g>
  <path d="M430 498 H770 L724 640 H476 Z" fill="#b88b62" stroke="#173126" stroke-width="10" stroke-linejoin="round"/>
  <path d="M410 480 H790" stroke="#173126" stroke-width="18" stroke-linecap="round"/>
  <path d="M492 568 H708" stroke="#173126" stroke-width="8" opacity="0.16" stroke-linecap="round"/><path d="M470 324 C506 198 620 232 586 358 C552 470 446 438 470 324Z" fill="#8b6a97" stroke="#173126" stroke-width="10"/><path d="M630 324 C666 198 780 232 746 358 C712 470 606 438 630 324Z" fill="#77965f" stroke="#173126" stroke-width="10"/><path d="M514 250 C544 300 542 372 496 416 M676 250 C706 300 704 372 658 416" stroke="#f8f4e8" stroke-width="7" fill="none"/></g>
</svg>
